<svg width="1200" height="675" viewBox="0 0 1200 675" xmlns="http://www.w3.org/2000/svg" role="img" aria-labelledby="title desc">
  <title id="title">Panduan Total Lapor SPT Karyawan</title>
  <desc id="desc">Cover panduan lengkap pelaporan SPT Tahunan via Coretax</desc>
  <defs>
    <linearGradient id="bg" x1="0" y1="0" x2="1" y2="1">
      <stop offset="0%" stop-color="#0F172A" />
      <stop offset="100%" stop-color="#1E3A8A" />
    </linearGradient>
  </defs>

  <rect width="1200" height="675" fill="url(#bg)" />
  <circle cx="1040" cy="120" r="260" fill="#38BDF8" fill-opacity="0.18" />
  <circle cx="160" cy="570" r="200" fill="#60A5FA" fill-opacity="0.16" />

  <g transform="translate(90,84)">
    <rect x="0" y="0" width="1020" height="507" rx="28" fill="#FFFFFF" fill-opacity="0.08" stroke="#FFFFFF" stroke-opacity="0.2" />

    <rect x="64" y="78" width="136" height="136" rx="24" fill="#2563EB" fill-opacity="0.3" />
    <path d="M110 107h44c10 0 18 8 18 18v70l-20-12-20 12-20-12-20 12v-70c0-10 8-18 18-18z" fill="#FFFFFF" fill-opacity="0.95" />

    <text x="240" y="132" fill="#BFDBFE" font-size="30" font-family="ui-sans-serif, -apple-system, Segoe UI, Roboto, Helvetica, Arial" font-weight="600">
      Edisi Karyawan TK/0
    </text>
    <text x="240" y="184" fill="#FFFFFF" font-size="54" font-family="ui-sans-serif, -apple-system, Segoe UI, Roboto, Helvetica, Arial" font-weight="800">
      Panduan Total Lapor SPT
    </text>
    <text x="240" y="238" fill="#FFFFFF" font-size="46" font-family="ui-sans-serif, -apple-system, Segoe UI, Roboto, Helvetica, Arial" font-weight="700">
      via Coretax DJP 2025
    </text>

    <g transform="translate(64,302)">
      <rect x="0" y="0" width="892" height="145" rx="18" fill="#0B1120" fill-opacity="0.45" />
      <text x="28" y="50" fill="#E2E8F0" font-size="28" font-family="ui-sans-serif, -apple-system, Segoe UI, Roboto, Helvetica, Arial">
        Aktivasi akun → Posting SPT → Verifikasi data BPA1 → Submit + BPE
      </text>
      <text x="28" y="96" fill="#C7D2FE" font-size="25" font-family="ui-sans-serif, -apple-system, Segoe UI, Roboto, Helvetica, Arial">
        Deadline pelaporan: 31 Maret 2026 • Formulir Coretax universal
      </text>
    </g>

    <text x="64" y="478" fill="#93C5FD" font-size="24" font-family="ui-sans-serif, -apple-system, Segoe UI, Roboto, Helvetica, Arial" font-weight="600">
      Lengkap dengan checklist, contoh perhitungan, troubleshooting, dan timeline.
    </text>
  </g>
</svg>
